<svg xmlns="http://www.w3.org/2000/svg" version="1.1" xmlns:xlink="http://www.w3.org/1999/xlink" width="335.23337" height="220.24294"><svg version="1.1" id="SvgjsSvg1003" width="335.23337" height="220.24294" viewBox="0 0 335.23337 220.24294" xmlns="http://www.w3.org/2000/svg" xmlns:svg="http://www.w3.org/2000/svg">
  <g transform="translate(-38.004425,-95.443098)">
    <path style="fill:#f5f5f5;fill-opacity:1;stroke:#f5f5f5;stroke-width:3.78;stroke-linecap:round;stroke-linejoin:round;stroke-dasharray:none;stroke-opacity:1" d="m 95.999997,134.12571 h -0.137143 c -0.193686,-1.50114 -0.702079,-3.00254 -1.30212,-4.38857 -0.448025,-1.03487 -1.013647,-2.03093 -1.762684,-2.87866 -5.093028,-5.76409 -12.119096,0.12964 -16.272305,4.00296 -0.82618,0.7705 -1.581378,1.60377 -2.337781,2.44141 -8.503807,9.41719 -14.48674,20.1404 -20.119394,31.40572 -3.648754,7.29751 -7.280583,14.60435 -10.236303,22.21714 -1.758834,4.53007 -3.431087,9.39823 -3.874005,14.26286 -0.189241,2.07847 0.114768,4.89066 1.769824,6.36354 1.2374,1.1012 2.859601,0.77662 4.21477,0.0894 2.650249,-1.34385 4.733048,-3.60906 6.708921,-5.76728 8.991613,-9.82148 18.388715,-19.14936 28.811078,-27.45628 5.780382,-4.60712 11.932608,-8.55813 18.377142,-12.16312 20.461983,-11.44617 44.918033,-20.65036 68.708573,-15.61487 5.54752,1.17419 10.84402,3.22946 15.90857,5.76002 4.58261,2.28978 8.78266,5.09767 12.61714,8.49879 4.57443,4.05745 8.73792,8.62172 11.77346,13.95832 3.76706,6.6226 5.71694,13.99625 6.53988,21.53143 2.99928,27.46277 -14.24191,52.48205 -34.22191,69.43529 -5.57386,4.72949 -11.517,8.96195 -17.96572,12.41505 -8.37364,4.48386 -17.4463,8.08456 -27.01714,8.68138 -4.34297,0.27081 -8.99612,-0.0785 -13.02857,-1.85608 -10.77616,-4.75038 -11.87747,-18.19336 -9.59896,-28.19565 0.74027,-3.24966 3.56919,-5.84238 3.66157,-9.18857 0.0336,-1.21743 -0.41381,-3.34992 -1.88252,-3.57837 -1.92234,-0.29899 -2.95498,2.87774 -3.69284,4.12694 -0.93416,1.58155 -2.42159,2.70846 -3.7101,3.97959 -1.9573,1.93087 -3.81658,3.95126 -5.76,5.8947 -3.827549,3.82756 -8.00273,7.2418 -12.068576,10.80906 -8.55154,7.50286 -17.199073,14.87579 -25.371427,22.79854 -2.765019,2.68058 -5.931416,5.24665 -8.226094,8.35811 -1.193756,1.61866 -1.692313,4.04347 -0.671216,5.89038 1.135525,2.05393 2.855319,0.42234 3.960167,-0.67922 3.026455,-3.01754 6.170302,-5.94345 9.325714,-8.82596 3.445069,-3.14708 6.690636,-6.50518 10.148571,-9.6393 7.419182,-6.72446 15.217424,-13.07348 22.491431,-19.95317 2.44346,-2.311 4.62839,-4.86504 6.99428,-7.24987 -0.29183,5.30702 -0.53873,10.25586 0.7066,15.49714 0.68244,2.87223 1.73516,5.68674 3.24513,8.22857 1.14095,1.92061 2.50853,3.66205 4.13974,5.19144 3.58373,3.36 8.36841,4.73378 13.16567,5.11885 8.24954,0.66228 16.3861,-1.76082 24,-4.71036 2.46824,-0.95615 4.90795,-2.03796 7.26857,-3.23589 10.83524,-5.49847 20.52585,-12.95641 29.20382,-21.41216 7.22588,-7.04084 13.81245,-14.99079 18.67106,-23.87759 9.42013,-17.23019 12.88642,-37.84063 7.69212,-56.91428 -2.02291,-7.42817 -5.36529,-14.29343 -10.2154,-20.29715 -4.51205,-5.58525 -10.12714,-10.54153 -16.27731,-14.26113 -7.74254,-4.68268 -16.65454,-8.09944 -25.64571,-9.29998 -4.49706,-0.60047 -8.92708,-0.48291 -13.44,-0.44004 -16.74279,0.15907 -33.60757,6.50364 -48.27429,14.09735 -13.76947,7.12917 -26.433537,15.98656 -37.714282,26.65393 -4.258267,4.02673 -8.322782,8.31166 -12.315874,12.59845 -2.76809,2.97169 -5.24055,6.16715 -8.804125,8.22857 2.214496,-11.05686 7.516841,-21.62455 12.712495,-31.54286 4.183204,-7.98559 8.106035,-15.86921 13.649803,-23.04 4.068951,-5.26312 8.747226,-12.09454 15.191986,-14.63556 6.010061,-2.36962 6.825243,5.63158 7.810764,9.56128 0.311702,1.24289 1.438929,4.57506 3.211113,2.80644 0.781156,-0.77959 0.945042,-2.05576 1.200955,-3.08073 0.556205,-2.22768 1.014977,-4.4807 1.522307,-6.72 1.953418,-8.62219 3.807098,-17.23992 5.483348,-25.92 0.53434,-2.76696 1.10244,-5.5643 1.42306,-8.365713 0.0776,-0.678047 0.1252,-2.496228 -0.92577,-2.506808 -0.82682,-0.0083 -1.17875,1.201339 -1.35622,1.821094 -0.62925,2.197437 -0.97623,4.488887 -1.47064,6.719997 -2.0913,9.43731 -3.967838,18.94637 -6.613203,28.25143 m 161.142853,38.4 c -3.22848,7.23864 -8.18903,14.24176 -8.22797,22.49143 -0.0128,2.70371 0.0316,5.48265 1.60324,7.81704 1.72708,2.56523 4.83623,3.37063 7.72187,3.817 6.22216,0.96246 12.69074,0.42405 18.92572,-0.10296 11.43462,-0.9665 22.78794,-3.17615 33.87428,-6.09345 14.506,-3.81715 28.80897,-9.02474 41.82857,-16.55329 9.81539,-5.67572 20.60297,-15.42597 18.12462,-27.97006 -1.25344,-6.34431 -5.91181,-11.04507 -11.26748,-14.31527 -8.74205,-5.33796 -18.9681,-8.4824 -28.8,-11.14321 -28.42787,-7.69342 -57.46392,-10.14087 -86.81142,-10.75168 -8.45588,-0.17598 -16.91595,-0.11203 -25.37143,0.002 -6.02016,0.0812 -12.10222,-0.0165 -18.10286,0.50193 -5.38012,0.46486 -10.79477,0.55346 -16.18285,1.05783 -8.49107,0.79483 -16.92564,2.04315 -25.37143,3.20471 -3.24348,0.44608 -6.57792,0.90847 -9.73714,1.78396 -1.0446,0.28949 -2.80197,0.61527 -2.9395,1.95091 -0.15735,1.52819 1.95216,0.97928 2.80235,0.84087 3.30292,-0.53779 6.67767,-0.83846 10.01143,-1.12028 13.88175,-1.17348 27.73405,-3.39144 41.69143,-3.41756 7.94772,-0.0149 15.91254,-0.57596 23.86286,-0.6832 33.54837,-0.45251 67.9594,0.50434 100.52571,9.33633 9.99388,2.71034 20.18822,5.80274 29.34857,10.70802 4.45727,2.38684 9.05461,5.31723 11.77018,9.71321 3.11029,5.03499 1.63356,9.89398 -1.843,14.26285 -4.78245,6.00998 -11.23225,9.94383 -18.01861,13.33714 -20.093,10.04691 -41.80821,16.86139 -64.18286,19.31773 -8.30661,0.91192 -18.04145,2.24303 -26.19428,-0.2082 -4.20402,-1.26396 -4.34464,-4.40767 -3.5023,-8.17238 1.3345,-5.96438 4.82752,-11.24652 7.36605,-16.73143 1.08103,-2.33573 3.09494,-7.12699 -0.16409,-8.78928 -2.50132,-1.27582 -5.71892,1.85618 -7.25764,3.44098 -5.21901,5.3753 -9.57805,11.77084 -13.30386,18.23973 -3.98222,6.91408 -7.84031,14.0269 -10.91605,21.39428 -3.62438,8.68155 -6.3703,17.69027 -9.3421,26.60572 -5.1451,15.43528 -9.87195,30.93138 -13.64353,46.76571 -1.83853,7.71884 -3.68174,15.42422 -5.37319,23.17714 -0.38408,1.76042 -1.01888,3.8241 -0.62456,5.62286 0.16589,0.75669 0.51762,1.70256 1.36132,1.91173 0.83467,0.20688 1.40017,-0.56086 1.69319,-1.22769 0.76034,-1.73036 1.6437,-4.15206 1.82308,-6.03261 0.0791,-0.82909 -0.15889,-1.64224 -0.0677,-2.46858 0.31823,-2.88545 1.15934,-5.80741 1.7875,-8.64 1.26093,-5.68603 2.61999,-11.3557 4.0325,-17.00571 3.29652,-13.18607 7.4585,-26.06121 11.75429,-38.94857 4.64952,-13.94856 9.40298,-27.49734 16.43737,-40.45714 3.68615,-6.79117 7.38516,-13.29231 12.23429,-19.33714 2.07427,-2.58574 3.99332,-5.12823 6.66548,-7.13143 z" id="SvgjsPath1002"></path>
  </g>
</svg><style>@media (prefers-color-scheme: light) { :root { filter: contrast(1) brightness(0.1); } }
@media (prefers-color-scheme: dark) { :root { filter: contrast(1) brightness(1); } }
</style></svg>