<svg
        id="signature"
        width="386.29468"
        height="189.54269"
        viewBox="0 0 386.29468 189.54269"
        xmlns="http://www.w3.org/2000/svg"
        class="w-48 lg:w-64 h-auto text-smoke/80"
      >
        <defs>
          <mask id="signature-mask">
            <path
              style="fill:none;stroke:#fff;stroke-width:12.2;stroke-linecap:round;stroke-linejoin:round;stroke-dasharray:none;stroke-opacity:1"
              d="M 66.100019,5.6467353 53.477905,59.456802 43.845239,50.488457 c 0,0 12.622114,-4.318092 0,-0.332161 -12.622114,3.985931 -18.60101,7.971862 -18.60101,7.971862 L 16.608045,73.075399 4.3180917,101.9734 l -0.3321609,17.27236 3.65377,4.98242 12.9542752,-3.98593 50.156296,-44.177403 27.237194,-15.279402 23.251264,-6.311057 5.9789,-0.332161 11.62563,6.311057 9.96483,17.936689 -10.29699,34.212567 -20.26182,32.88394 -20.593975,18.60101 -21.258297,5.31457 -14.282919,-9.30051 c 0,0 -1.992966,-17.27236 -4.650253,-18.26884 -2.657287,-0.99649 -15.279401,12.62211 -15.279401,12.62211 l -26.572872,25.90855"
              id="sig-path1"></path>
            <path
              style="fill:none;stroke:#fff;stroke-width:8.8;stroke-linecap:round;stroke-linejoin:round;stroke-dasharray:none;stroke-opacity:1"
              d="m 134.85733,125.05858 -1.99297,25.07815 0.66432,3.65376 c 0,0 7.22637,-1.10222 9.30051,-7.97186 0.82029,-2.71684 6.97538,-16.27587 6.97538,-16.27587 l 0.56849,11.26936 0.92623,7.66381 4.81633,0.33215 4.98242,-2.32512 7.80578,-18.10277 2.32513,12.28995 6.80929,-9.79874 2.65729,-5.64674 0.66432,18.26885 c 0,0 5.9789,1.32864 6.31106,0 0.33216,-1.32864 7.6397,-19.92965 7.6397,-19.92965 l 6.31106,-24.24775 3.65377,-28.897999 -5.1485,53.145739 -0.49824,12.12388 0.8304,3.81984 2.88507,2.56078 4.92072,0.42868 7.30754,-10.96131 5.43201,-8.65634 -0.78176,16.96036 5.31457,1.6608 6.97538,-11.29347 0.33216,6.97538 4.65026,0.99649 6.64321,-7.97187 1.99297,-5.31457 -2.26321,26.12717 -2.05488,9.41405 -5.31458,12.28995 -11.62563,1.6608 -34.87689,-1.99296 -25.24423,2.98945 -38.19851,6.31105 -41.520109,6.31106"
              id="sig-path2"></path>
            <path
              style="fill:none;stroke:#fff;stroke-width:7;stroke-linecap:round;stroke-linejoin:round;stroke-dasharray:none;stroke-opacity:1"
              d="m 261.17903,123.66075 -3.05335,-0.46974 -3.28823,2.70104 -3.12805,6.81845 -1.45198,5.74727 0.46975,3.40566 4.76748,-1.79839 3.24955,-4.85635 0.12293,-0.38801 5.06749,-9.69248 1.82635,0.0523 0.16586,5.41175 0.54179,6.17376 -1.71785,0.88175 1.86352,2.70917 5.60378,1.50653 32.76482,1.87898 16.79343,-1.17436 26.07093,-4.11028 11.15648,-1.52668 7.3985,-0.11744 4.23852,3.471"
              id="sig-path3"></path>
            <path
              style="fill:none;stroke:#fff;stroke-width:7;stroke-linecap:round;stroke-linejoin:round;stroke-dasharray:none;stroke-opacity:1"
              d="m 382.72592,138.69264 -3.87541,0.70462"
              id="sig-path4"></path>
          </mask>
        </defs>

        <path
          fill="currentColor"
          stroke="currentColor"
          mask="url(#signature-mask)"
          d="m 52.734168,53.21815 c -8.709354,-6.20555 -21.09562,-4.12122 -28.361412,3.4362 -3.066935,3.19003 -5.484668,6.95187 -7.818532,10.68951 -6.314609,10.11276 -10.463787,21.11173 -13.345769,32.64 -1.274135,5.0967 -2.252486,10.25302 -2.615356,15.49714 -0.182707,2.64047 -0.228845,5.80787 1.332904,8.09079 2.36498,3.45709 7.676933,3.41339 11.311024,2.53156 8.848451,-2.14713 16.496785,-9.77562 23.039999,-15.69022 19.606213,-17.72265 39.433913,-37.1504 63.908574,-48.05176 9.09102,-4.04927 21.35285,-8.80336 31.13143,-4.53578 11.8391,5.16685 13.44485,20.576 11.48199,31.73541 -0.3909,2.22241 -0.92747,4.40707 -1.52101,6.58286 -5.40194,19.80211 -17.0081,39.41277 -31.49241,53.89714 -7.41358,7.41362 -16.398503,13.987 -26.742861,16.50727 -2.00672,0.4889 -4.11593,0.78184 -6.17143,0.48535 -8.562747,-1.235 -12.820788,-9.89923 -13.663994,-17.67833 -0.344171,-3.17518 0.248463,-6.80305 -0.575365,-9.87425 -0.833932,-3.10887 -5.245765,-3.20289 -7.703496,-2.19277 -3.6637,1.50578 -6.492535,5.86777 -9.192434,8.63845 -4.100349,4.20785 -7.71645,8.84407 -11.690558,13.16571 -3.175266,3.45295 -6.59057,6.63169 -9.97415,9.87429 -2.455333,2.35302 -5.031669,4.59572 -7.679987,6.72897 -0.768604,0.61912 -2.710106,1.71914 -1.547156,2.86289 0.876847,0.86236 2.446584,0.97068 3.604286,0.96439 3.870967,-0.0209 6.956024,-2.9691 9.599736,-5.49362 4.693276,-4.48172 9.284326,-9.08237 13.551139,-13.97692 4.762755,-5.46347 9.165193,-11.18104 14.151981,-16.45714 0,5.14245 0.22089,10.31729 2.383376,15.08571 0.881819,1.94448 2.029863,3.74655 3.446811,5.34613 7.244581,8.17831 20.051391,7.6065 29.552669,4.56993 14.086593,-4.50201 25.755073,-14.65741 34.612313,-26.23606 2.4706,-3.2297 5.16156,-6.54984 7.07912,-10.14857 h 0.13714 c -1.38492,5.06958 -2.16013,10.42179 -2.78454,15.63429 -0.22837,1.90637 -0.76291,4.78595 0.0978,6.58009 1.12639,2.34784 4.82347,2.24687 6.93814,1.65425 4.54641,-1.27409 8.39238,-7.58 9.87428,-11.80006 h 0.13715 c 0.10984,1.96852 0.45432,4.18532 1.74571,5.75081 2.29103,2.77731 7.1679,2.51834 10.04857,0.90774 3.50393,-1.9591 6.30002,-6.85582 7.40572,-10.63569 h 0.13714 c 0.51126,3.19761 4.2817,3.95628 6.85587,2.5347 1.86293,-1.02879 3.34883,-3.62249 4.11556,-5.55184 h 0.13714 c 0,2.48196 0.05,5.21363 1.37868,7.40559 1.69041,2.78871 6.12875,3.3482 8.62801,1.29205 1.46625,-1.2063 2.42429,-3.05115 3.2617,-4.7205 1.68552,-3.36005 3.72684,-7.36016 4.2859,-11.10857 h 0.13714 c 0.14503,3.93403 0.10547,9.03445 2.81026,12.20298 2.82284,3.30683 8.42692,3.32029 12.00117,1.27509 2.50158,-1.43141 4.71427,-4.08082 6.03428,-6.62093 h 0.13715 c 0.17357,1.55381 0.54294,3.15661 1.61328,4.35549 3.72054,4.16731 10.96375,1.41394 13.19814,-2.84692 3.34392,2.07457 9.07445,1.45336 11.24572,-2.05714 h 0.13714 c -1.4436,8.33501 -1.86934,16.88473 -4.57162,24.96 -1.20258,3.5937 -2.89446,7.65197 -5.98841,10.02793 -2.49539,1.91632 -5.98743,1.40049 -8.91425,1.35727 -7.21152,-0.10647 -14.47187,-1.004 -21.66858,-1.48386 -21.44753,-1.43002 -42.70817,2.7825 -63.77142,6.29293 -13.22602,2.2043 -26.46725,4.92275 -39.771433,6.57995 -3.15803,0.39338 -6.30909,0.82393 -9.46286,1.24523 -0.86693,0.11582 -2.71674,0.43339 -2.68969,1.62311 0.0257,1.12875 1.69864,1.50747 2.55255,1.68305 2.76618,0.56876 5.71649,0.16219 8.50286,-0.0388 5.076383,-0.36629 10.092873,-1.44586 15.085713,-2.37666 6.76291,-1.26074 13.52551,-2.51404 20.29714,-3.72817 10.72078,-1.92218 21.45745,-3.83237 32.22857,-5.4517 10.78942,-1.62207 21.84394,-3.00036 32.77715,-2.4087 9.03122,0.48877 18.1069,1.48989 27.15428,1.48989 4.57681,0 9.61512,0.0338 13.57714,-2.6165 2.94004,-1.96667 4.73436,-5.40211 5.95586,-8.62922 2.61922,-6.91984 3.81437,-15.09818 3.91843,-22.49143 6.13736,2.71743 11.2664,-1.15275 13.98857,-6.71999 h 0.13714 c 0.004,1.06351 0.0852,2.1316 0.4006,3.15428 1.51435,4.91014 7.99569,4.45813 12.0794,4.68151 2.60762,0.14263 5.21053,0.35939 7.81714,0.52212 9.95933,0.62174 19.90618,1.60726 29.89715,0.94075 11.35811,-0.75772 22.4634,-3.14319 33.73714,-4.5586 3.70178,-0.46475 7.4104,-0.88048 11.10857,-1.37349 2.07107,-0.27609 4.61752,-1.09583 6.70132,-0.79096 0.66726,0.0976 1.18617,0.63673 1.80281,0.88065 1.06875,0.42274 4.68315,1.22231 5.11718,-0.46746 0.15063,-0.58643 -0.43119,-1.10806 -0.78489,-1.49163 -1.30393,-1.41411 -3.06958,-1.45348 -4.88213,-1.59694 -3.10601,-0.2458 -6.39178,0.38076 -9.46286,0.80455 -3.32652,0.45902 -6.67681,0.74641 -10.01143,1.14001 -11.40415,1.34605 -22.67635,3.67139 -34.14857,4.43672 -7.72922,0.51563 -15.46808,-0.12077 -23.17714,-0.64242 -4.28803,-0.29016 -8.59303,-0.78283 -12.89143,-0.83844 -1.47074,-0.019 -4.16297,0.25026 -5.26671,-0.87939 -1.06209,-1.08705 -1.09249,-2.91429 -1.22682,-4.33269 -0.3451,-3.64392 0.38712,-7.67615 -0.44695,-11.24414 -0.61527,-2.63207 -5.53642,-2.23805 -6.77381,-0.41301 -6.46064,-2.78333 -11.10251,5.23731 -12.75428,10.42286 h -0.13714 c 0.10033,-1.8293 0.3115,-3.66192 0.48661,-5.48571 0.16257,-1.69306 0.68667,-4.2742 -0.0247,-5.8784 -0.75456,-1.70161 -4.02372,-1.55822 -5.13302,-0.34804 -1.00913,1.10091 -1.39624,2.94422 -1.93935,4.30644 -1.40541,3.52495 -2.99012,7.95435 -6.28098,10.14857 -0.9109,-1.99348 -0.71528,-4.03766 -0.52587,-6.17143 0.0805,-0.90732 0.49905,-2.24823 0.0898,-3.10706 -0.73453,-1.5414 -4.06865,-1.19817 -5.09069,-0.20797 -1.0168,0.98511 -1.4016,2.87404 -1.99318,4.13789 -1.17574,2.51184 -2.58738,5.03137 -4.41147,7.13142 -1.0719,-3.92884 -0.64236,-8.08464 -0.10972,-12.06857 0.1839,-1.37548 1.30502,-4.31678 0.55774,-5.55579 -1.13417,-1.88049 -5.32217,-1.19005 -6.48952,0.22564 -2.41381,2.92732 -3.97211,6.84515 -5.85183,10.13015 -1.92775,3.36893 -4.22012,6.17617 -6.62096,9.18857 h -0.13714 c -2.98329,-5.6629 -2.54936,-13.13177 -2.21297,-19.33714 0.59871,-11.04438 1.67927,-22.08929 3.19204,-33.05142 0.66561,-4.82324 1.38763,-9.67859 1.7373,-14.53715 0.0943,-1.3099 0.73361,-4.06155 -0.34123,-5.07263 -1.0989,-1.03371 -4.492,-1.12739 -5.19236,0.42995 -0.59126,1.31473 -0.37706,3.22173 -0.55644,4.64268 -0.41103,3.25592 -0.93981,6.49241 -1.42634,9.73715 -0.88702,5.91572 -1.43938,11.9564 -2.55738,17.82857 -0.8956,4.70405 -2.22415,9.35519 -3.42332,13.98857 -1.8345,7.08822 -3.77209,14.22226 -6.619,20.98285 -1.0423,2.47519 -2.41247,4.72982 -3.58315,7.13143 -1.90069,-4.09029 -1.23812,-9.22719 -0.94377,-13.57714 0.10497,-1.5513 0.99355,-4.59869 0.17204,-5.98636 -0.80235,-1.35527 -3.75573,-1.10826 -4.63149,0.0201 -1.14882,1.48023 -1.67853,3.71985 -2.46415,5.41765 -1.32266,2.8584 -2.98108,5.53322 -4.33835,8.36571 h -0.13714 c 0,-1.74475 -0.0242,-3.47072 -0.11844,-5.21143 -0.0905,-1.67178 0.52354,-4.20311 -0.17806,-5.73982 -0.80647,-1.76637 -4.41672,-1.35695 -5.38093,0.0103 -1.29392,1.8347 -1.91411,4.48113 -2.77325,6.5524 -2.18625,5.27083 -4.47745,10.97376 -8.55504,15.08571 -1.52367,-4.29505 -1.64583,-9.19196 -1.34437,-13.71428 0.10378,-1.5569 0.11218,-3.10187 0.10999,-4.66286 -9.7e-4,-0.69564 0.0797,-1.53271 -0.40835,-2.09794 -1.38149,-1.59988 -5.02729,-1.06771 -6.08719,0.5955 -1.16931,1.83489 -1.80103,4.16722 -2.65475,6.1653 -2.07594,4.85866 -4.26353,10.10484 -7.58104,14.26286 0,-5.71214 0.53088,-11.46421 1.14504,-17.14286 0.17292,-1.59886 0.71823,-4.86141 -1.55647,-5.21143 4.41153,-8.14533 8.38594,-16.40029 11.24334,-25.23428 4.33512,-13.4025 6.54755,-32.61101 -6.03191,-42.51836 -1.66609,-1.31218 -3.53036,-2.3813 -5.48571,-3.20005 -3.02304,-1.26581 -6.20625,-1.9427 -9.46286,-2.23224 -4.84323,-0.4306 -9.80598,0.18007 -14.53714,1.18858 -11.7571,2.50621 -22.812613,7.94769 -32.914291,14.33441 -12.361666,7.81557 -23.787158,17.09175 -34.697142,26.8049 -8.48733,7.55627 -16.630848,15.67354 -25.782856,22.43737 -2.121517,1.56792 -4.331336,3.09973 -6.72,4.23547 -1.045476,0.4971 -2.236042,1.18022 -2.997045,-0.0778 -0.970373,-1.60414 -0.980355,-3.79963 -0.980081,-5.61227 6.44e-4,-4.26556 0.759172,-8.58749 1.620506,-12.75429 2.687825,-13.00267 7.150777,-25.30381 14.160644,-36.61714 2.981962,-4.81264 6.382592,-10.16556 11.510261,-12.91348 4.406292,-2.36133 9.050729,-2.45452 12.570707,1.53089 1.198183,1.35661 1.690986,3.55868 3.093072,4.66744 1.441808,1.14017 5.168282,1.293 5.994546,-0.7014 0.650776,-1.57079 0.699057,-3.53638 1.025776,-5.20059 0.658443,-3.35394 1.438585,-6.68006 2.200706,-10.01143 2.287876,-10.00077 4.992923,-19.89705 6.645962,-30.03429 0.581811,-3.56792 1.111641,-7.21486 1.109188,-10.83428 -7.12e-4,-1.05466 -0.06868,-3.28025 -1.637787,-3.20813 -1.261566,0.058 -1.284685,2.03702 -1.372885,2.93384 -0.316197,3.21506 -0.937157,6.43396 -1.569869,9.6 C 60.65491,26.6535 56.113685,39.77168 52.734148,53.21818 M 260.917,124.39532 c -1.85246,5.27534 -5.02788,10.53705 -8.22857,15.08571 -0.32621,-1.29527 0.14955,-2.73222 0.51764,-3.97714 0.87868,-2.97189 1.97926,-6.0738 3.74941,-8.64 0.93007,-1.34833 2.17867,-2.77833 3.96152,-2.46857 m 119.86286,12.82448 c -1.46609,0.18504 -4.12735,0.74658 -4.41914,2.5357 -0.35123,2.15359 3.20963,2.30048 4.55628,2.13678 1.66289,-0.20215 2.95684,-0.68327 4.07538,-1.93724 0.33877,-0.37981 0.92558,-0.83312 0.78161,-1.41389 -0.40105,-1.61774 -3.78098,-1.47446 -4.99413,-1.32135 z"
        ></path>
      </svg>